<svg width="23" height="22" viewBox="0 0 23 22" fill="none" xmlns="http://www.w3.org/2000/svg">
<path d="M8.10168 11L8.10168 7.30715C8.10168 5.29657 9.73158 3.66667 11.7422 3.66667V3.66667C13.7527 3.66667 15.3826 5.29656 15.3826 7.30714L15.3826 11" stroke="white" stroke-width="2" stroke-linecap="round"/>
<path d="M4.15748 11.9202C4.30161 10.1782 4.37367 9.30727 4.94785 8.77864C5.52203 8.25 6.39597 8.25 8.14386 8.25H15.3403C17.0882 8.25 17.9622 8.25 18.5363 8.77864C19.1105 9.30727 19.1826 10.1782 19.3267 11.9202L19.754 17.0851C19.8379 18.0981 19.8798 18.6047 19.5827 18.9273C19.2856 19.25 18.7774 19.25 17.7609 19.25H5.72334C4.70683 19.25 4.19858 19.25 3.9015 18.9273C3.60442 18.6047 3.64633 18.0981 3.73015 17.0851L4.15748 11.9202Z" stroke="white" stroke-width="2"/>
</svg>
