<svg width="22" height="21" viewBox="0 0 22 21" fill="none" xmlns="http://www.w3.org/2000/svg">
<path d="M1.49691 0.535425C1.40407 0.642792 1.37452 0.717482 1.37452 0.862196C1.37452 1.19363 1.46737 1.25899 2.30295 1.52507C2.70809 1.65578 3.05836 1.78182 3.07524 1.80049C3.13432 1.86118 0.547379 7.96244 0.403894 8.10249C0.209768 8.29388 0.180227 8.40592 0.209768 8.79804C0.27729 9.61964 0.475637 10.1985 0.91453 10.8567C1.54333 11.8043 2.4591 12.3318 3.55211 12.3832C4.6409 12.4345 5.47649 12.0704 6.24877 11.2068C6.83959 10.5486 7.14344 9.85771 7.24472 8.93809C7.28693 8.55997 7.2827 8.47594 7.22784 8.32656C7.18986 8.22853 7.1139 8.12583 7.05482 8.09782C6.97464 8.05581 6.72565 7.5003 5.75924 5.21291C5.10512 3.65841 4.55228 2.34666 4.53118 2.30465C4.50586 2.24397 4.51008 2.22996 4.54806 2.24397C4.5776 2.2533 5.57355 2.57074 6.75519 2.94419C7.94104 3.31764 8.937 3.63507 8.97498 3.64908C9.02562 3.66308 9.05938 3.77045 9.09314 4.03187C9.20286 4.85813 9.70084 5.53968 10.3803 5.79642L10.5744 5.87111L10.566 10.684L10.5533 15.5015L9.73038 15.5248C9.00874 15.5482 8.87791 15.5622 8.67535 15.6556C8.01701 15.9496 7.57811 16.6545 7.57811 17.4248V17.7095L7.38399 17.7842C6.93243 17.9523 6.51886 18.3537 6.33318 18.8065C6.15171 19.2454 6.07997 20.1696 6.20235 20.4964C6.32474 20.8185 6.03355 20.7998 10.9964 20.7998C15.9593 20.7998 15.6681 20.8185 15.7905 20.4964C15.8622 20.3097 15.8664 19.7822 15.8031 19.3527C15.6976 18.6105 15.2503 18.027 14.6088 17.7842L14.4147 17.7095V17.4248C14.4147 16.6545 13.9758 15.9496 13.3175 15.6556C13.1149 15.5622 12.9841 15.5482 12.2625 15.5248L11.4395 15.5015L11.4269 10.684L11.4184 5.87111L11.5746 5.8151C11.9459 5.68439 12.4608 5.24092 12.6296 4.90948C12.6718 4.83012 12.8069 4.86746 15.0731 5.58169C16.394 6.00182 17.5165 6.3566 17.5672 6.37994C17.6516 6.41729 17.6009 6.55733 16.3518 9.51227C15.3769 11.823 15.0182 12.6353 14.9254 12.724C14.7312 12.9107 14.7017 13.0507 14.7523 13.5549C14.8494 14.5259 15.301 15.4968 15.9171 16.0617C16.4108 16.5098 16.6387 16.6545 17.2 16.8599C17.5334 16.9813 17.6094 16.9906 18.2339 16.9906C18.9598 16.9953 19.137 16.958 19.6688 16.7012C20.517 16.2904 21.264 15.4175 21.5805 14.4558C21.7029 14.0871 21.7999 13.5409 21.7999 13.2468C21.7999 13.004 21.686 12.7473 21.5594 12.7053C21.5045 12.6866 21.1121 11.8043 20.2512 9.76902C19.5802 8.17251 19.0315 6.86076 19.0358 6.85609C19.04 6.84676 19.2721 6.91678 19.5548 7.00548C19.8334 7.09417 20.133 7.16886 20.2174 7.16886C20.5761 7.16886 20.7576 6.66003 20.5044 6.37994C20.3862 6.2539 19.9684 6.11853 13.1613 3.96651L12.9419 3.89649L12.9166 3.63041C12.8322 2.78547 12.3637 2.09459 11.6759 1.79115C11.486 1.70713 11.3551 1.68846 10.9964 1.68846C10.4984 1.68846 10.2368 1.77248 9.89074 2.0479C9.7135 2.18328 9.44341 2.50538 9.35479 2.67344C9.32525 2.73412 8.75131 2.56607 5.62841 1.57175C3.59853 0.927549 1.86828 0.400049 1.77966 0.400049C1.66149 0.400049 1.58975 0.432726 1.49691 0.535425ZM11.4438 2.73879C12.2329 3.15892 12.2287 4.40998 11.4395 4.81611C10.7094 5.19423 9.8612 4.53136 9.95405 3.65841C10.0005 3.25695 10.2579 2.8695 10.5913 2.70611C10.7981 2.60808 11.2327 2.62209 11.4438 2.73879ZM4.85613 5.35762L5.96602 7.98579L3.74624 7.99979C2.52662 8.00446 1.52223 7.99979 1.50957 7.98579C1.49691 7.97178 1.99066 6.77674 2.60258 5.32961C3.2145 3.87782 3.72092 2.70144 3.73358 2.71078C3.74202 2.72012 4.24843 3.91516 4.85613 5.35762ZM19.386 9.99309L20.4875 12.6073L18.2677 12.6213C17.0481 12.6259 16.0395 12.6213 16.031 12.6119C16.0226 12.6026 16.5121 11.4075 17.124 9.95574C17.736 8.50395 18.2466 7.33224 18.2593 7.34625C18.2761 7.36492 18.7826 8.5553 19.386 9.99309ZM6.35428 9.00344C6.35428 9.0688 6.20657 9.54028 6.13061 9.72234C5.7086 10.7307 4.73797 11.4122 3.72514 11.4169C2.77561 11.4169 1.8303 10.796 1.39984 9.88105C1.2648 9.59163 1.12554 9.16216 1.12132 9.02211C1.12132 9.00344 2.29873 8.98944 3.7378 8.98944C5.17686 8.98944 6.35428 8.99411 6.35428 9.00344ZM20.8504 13.7603C20.8335 13.8443 20.766 14.059 20.6985 14.2411C20.2891 15.3288 19.3143 16.0383 18.2382 16.0383C17.0692 16.0337 16.0395 15.1794 15.7061 13.9423C15.6681 13.8023 15.6386 13.6716 15.6386 13.6482C15.6386 13.6296 16.816 13.6109 18.2593 13.6109H20.88L20.8504 13.7603ZM13.0601 16.5985C13.1613 16.6639 13.3048 16.7946 13.3766 16.8926C13.4821 17.0373 13.5074 17.1213 13.5201 17.3688L13.5369 17.6722H10.9964H8.4559L8.47278 17.3688C8.48544 17.1213 8.51076 17.0373 8.62049 16.8926C8.76819 16.6872 8.96654 16.5472 9.17754 16.5005C9.26195 16.4818 10.1271 16.4678 11.1019 16.4725L12.8744 16.4818L13.0601 16.5985ZM14.2459 18.7038C14.3514 18.7272 14.5076 18.8065 14.592 18.8719C14.7819 19.0119 14.9633 19.3947 14.9633 19.6421V19.8195H10.9922H7.01684L7.04216 19.5861C7.08858 19.138 7.35445 18.8019 7.72582 18.7038C7.96215 18.6432 14.0012 18.6432 14.2459 18.7038Z" fill="#2FB946" stroke="#2FB946" stroke-width="0.4"/>
</svg>
