<svg width="13" height="23" viewBox="0 0 13 23" fill="none" xmlns="http://www.w3.org/2000/svg">
<path d="M12.1868 0.790223L9.38797 0.785645C6.24358 0.785645 4.21153 2.91108 4.21153 6.20077V8.6975H1.39743C1.15425 8.6975 0.957336 8.89848 0.957336 9.14639V12.7639C0.957336 13.0118 1.15448 13.2125 1.39743 13.2125H4.21153V22.3406C4.21153 22.5885 4.40845 22.7893 4.65162 22.7893H8.32322C8.56639 22.7893 8.76331 22.5883 8.76331 22.3406V13.2125H12.0537C12.2968 13.2125 12.4937 13.0118 12.4937 12.7639L12.4951 9.14639C12.4951 9.02736 12.4486 8.91336 12.3662 8.82912C12.2838 8.74488 12.1715 8.6975 12.0548 8.6975H8.76331V6.58099C8.76331 5.56371 9.00109 5.04728 10.3009 5.04728L12.1864 5.0466C12.4293 5.0466 12.6262 4.84561 12.6262 4.59793V1.23889C12.6262 0.991436 12.4295 0.790681 12.1868 0.790223Z" fill="#8F8E94"/>
</svg>
