<svg width="21" height="15" viewBox="0 0 21 15" fill="none" xmlns="http://www.w3.org/2000/svg">
<path d="M20.4056 2.47878C20.1741 1.61814 19.4956 0.939709 18.6351 0.707966C17.063 0.277832 10.7747 0.277832 10.7747 0.277832C10.7747 0.277832 4.4866 0.277832 2.91455 0.691658C2.07059 0.923156 1.37549 1.61826 1.14399 2.47878C0.730286 4.0507 0.730286 7.31068 0.730286 7.31068C0.730286 7.31068 0.730286 10.5871 1.14399 12.1426C1.37573 13.0031 2.05404 13.6815 2.91468 13.9133C4.50316 14.3435 10.7749 14.3435 10.7749 14.3435C10.7749 14.3435 17.063 14.3435 18.6351 13.9297C19.4957 13.6981 20.1741 13.0196 20.4059 12.1591C20.8194 10.5871 20.8194 7.32723 20.8194 7.32723C20.8194 7.32723 20.836 4.0507 20.4056 2.47878ZM8.77262 10.3224V4.299L14.0017 7.31068L8.77262 10.3224Z" fill="#8F8E94"/>
</svg>
